<svg width="29" height="29" viewBox="0 0 29 29" fill="none" xmlns="http://www.w3.org/2000/svg">
<path d="M9.04708 5.02359V6.90379H26.909V10.6257L24.8231 17.2449H8.45552L6.10527 0.320801H0.586182V2.201H4.46809L6.81834 19.1251H26.202L28.7892 10.9149V5.02359H9.04708Z" fill="black"/>
<path d="M10.045 21.0232C9.04804 21.0243 8.09222 21.4209 7.38726 22.1258C6.68229 22.8308 6.28574 23.7866 6.28461 24.7836C6.28461 25.7809 6.68079 26.7374 7.386 27.4426C8.09121 28.1478 9.04769 28.544 10.045 28.544C11.0423 28.544 11.9988 28.1478 12.704 27.4426C13.4092 26.7374 13.8054 25.7809 13.8054 24.7836C13.8043 23.7866 13.4077 22.8308 12.7028 22.1258C11.9978 21.4209 11.042 21.0243 10.045 21.0232ZM10.045 26.6638C9.67314 26.6638 9.30962 26.5535 9.00042 26.3469C8.69123 26.1403 8.45024 25.8467 8.30793 25.5031C8.16562 25.1596 8.12839 24.7815 8.20094 24.4168C8.27348 24.0521 8.45255 23.717 8.71551 23.4541C8.97846 23.1911 9.31348 23.0121 9.6782 22.9395C10.0429 22.867 10.421 22.9042 10.7645 23.0465C11.1081 23.1888 11.4017 23.4298 11.6083 23.739C11.8149 24.0482 11.9252 24.4117 11.9252 24.7836C11.9246 25.2821 11.7263 25.76 11.3739 26.1124C11.0214 26.4649 10.5435 26.6632 10.045 26.6638Z" fill="black"/>
<path d="M23.2064 21.0232C22.2094 21.0243 21.2536 21.4209 20.5486 22.1258C19.8437 22.8308 19.4471 23.7866 19.446 24.7836C19.446 25.7809 19.8422 26.7374 20.5474 27.4426C21.2526 28.1478 22.2091 28.544 23.2064 28.544C24.2037 28.544 25.1602 28.1478 25.8654 27.4426C26.5706 26.7374 26.9668 25.7809 26.9668 24.7836C26.9657 23.7866 26.5691 22.8308 25.8642 22.1258C25.1592 21.4209 24.2034 21.0243 23.2064 21.0232ZM23.2064 26.6638C22.8345 26.6638 22.471 26.5535 22.1618 26.3469C21.8526 26.1403 21.6116 25.8467 21.4693 25.5031C21.327 25.1596 21.2898 24.7815 21.3623 24.4168C21.4349 24.0521 21.6139 23.717 21.8769 23.4541C22.1398 23.1911 22.4749 23.0121 22.8396 22.9395C23.2043 22.867 23.5823 22.9042 23.9259 23.0465C24.2695 23.1888 24.5631 23.4298 24.7697 23.739C24.9763 24.0482 25.0866 24.4117 25.0866 24.7836C25.086 25.2821 24.8877 25.76 24.5352 26.1124C24.1828 26.4649 23.7049 26.6632 23.2064 26.6638Z" fill="black"/>
</svg>
